<?xml version="1.0" encoding="UTF-8"?>
<svg id="Capa_1" xmlns="http://www.w3.org/2000/svg" version="1.1" viewBox="0 0 306 102">
  <!-- Generator: Adobe Illustrator 30.2.1, SVG Export Plug-In . SVG Version: 2.1.1 Build 1)  -->
  <path d="M23.58,78.61c.7-.51.98-1.27.98-2.01,0-.7-.27-1.35-.8-1.83-.48-.44-1.08-.68-1.66-.81h-.04s-.04-.02-.04-.02l-2.35-.41c-1.26-.24-1.84-.52-2.05-.68-.03-.05-.08-.18-.13-.41-.07-.34-.12-.83-.12-1.49V10.58c0-.66.05-1.15.12-1.49.05-.23.1-.36.13-.41.21-.16.79-.44,2.05-.68l2.35-.41h.04s.04-.02.04-.02c.57-.13,1.18-.37,1.66-.81.52-.48.8-1.13.8-1.83,0-.74-.28-1.5-.98-2.01-.62-.45-1.36-.56-2.01-.56H2.99c-.65,0-1.39.11-2.01.56C.28,3.44,0,4.2,0,4.94c0,.7.27,1.35.8,1.83.48.44,1.08.68,1.66.81h.04s.04.02.04.02l2.35.41c.66.13,1.15.27,1.49.41.36.15.46.25.45.24l.04.04.04.04s.08.11.16.41c.08.33.14.8.14,1.45v60.37c0,.65-.06,1.12-.14,1.45-.08.33-.17.42-.16.41l-.04.04-.04.04s-.1.1-.45.24c-.34.14-.83.28-1.49.4l-2.35.41h-.04s-.04.02-.04.02c-.57.13-1.18.37-1.66.81-.52.48-.8,1.13-.8,1.83,0,.74.28,1.5.98,2.01.62.45,1.36.56,2.01.56h18.58c.65,0,1.39-.11,2.01-.56Z"/>
  <path d="M235.11,60.97c.15-.62.18-1.27.03-1.9l-.08-.28-.06-.17c-.16-.39-.43-.77-.84-1.04-.45-.3-.95-.4-1.39-.4-.62,0-1.25.18-1.78.63-.5.43-.79.99-.94,1.55-1.29,4.41-2.55,7.55-3.75,9.51l-.02.03c-1.13,1.94-2.15,2.46-2.96,2.46-.37,0-.55-.09-.63-.14-.08-.06-.2-.18-.3-.5-.22-.73-.22-2.08.28-4.26l9.14-39.32h0s0-.02,0-.02c.13-.62.18-1.49-.34-2.22-.56-.78-1.44-.96-2.1-.96-.82,0-1.55.34-2.17.78-.75.48-1.49,1.38-2.2,2.41v.02s-.03.03-.04.04c0-.01-.02-.02-.03-.04v-.02s-.36-.48-.36-.48c-.84-1.06-1.87-1.86-3.1-2.37-1.36-.64-2.8-.96-4.31-.96-2.97,0-5.93.92-8.84,2.67-2.82,1.66-5.5,3.92-8.04,6.75v.02c-2.49,2.83-4.7,6.07-6.67,9.71-1.97,3.65-3.51,7.52-4.64,11.59-.33,1.19-.62,2.38-.85,3.57,0,0-.01-.01-.02-.02-.34-.23-.71-.34-1.05-.38l-.34-.02c-.62,0-1.25.18-1.78.63-.5.43-.79.99-.94,1.55-1.29,4.41-2.55,7.55-3.75,9.51h-.01s0,.03,0,.03c-1.13,1.94-2.15,2.46-2.96,2.46-.37,0-.55-.09-.63-.14-.08-.06-.2-.18-.3-.5-.22-.73-.22-2.08.28-4.25l14.58-63.14v-.04c.13-.62.19-1.46-.25-2.18-.51-.85-1.38-1.09-2.09-1.09-.9,0-1.71.38-2.41.91l-.03.02-.03.02c-.98.81-2.33,1.52-4.12,2.09-1.85.53-3.98.99-6.39,1.4-.57.09-1.14.29-1.63.68-.51.4-.84.95-.98,1.57v.04s-.02.04-.02.04c-.12.71-.02,1.55.64,2.21.57.57,1.34.75,1.98.8l3.08.31h.02s.02,0,.02,0c.38.03.59.09.7.14.01,0,.02.01.03.02h0s.01.03.01.03c0,.03.02.09.02.2,0,.25-.05.63-.2,1.18v.02s-.01.02-.01.02l-3.17,13.08c-1.55-.98-3.33-1.45-5.28-1.45-2.97,0-5.93.92-8.85,2.67l-.53.32c-2.45,1.52-4.79,3.49-7.03,5.9l-.48.52v.02c-2.49,2.83-4.71,6.07-6.67,9.71-1.97,3.65-3.51,7.52-4.64,11.59-.68,2.44-1.16,4.88-1.43,7.32-.55.11-1.09.38-1.5.88-.52.64-.66,1.44-.66,2.14,0,2.8-.38,4.51-.9,5.38-.64.98-1.07,1.07-1.24,1.07-.1,0-.13-.02-.14-.03-.02-.01-.09-.07-.18-.25-.21-.42-.39-1.22-.39-2.59v-31.42c0-4.11-.88-7.46-2.89-9.8-2.05-2.38-5.05-3.46-8.72-3.46-2.41,0-4.8.53-7.15,1.56-2.33,1.02-4.46,2.4-6.42,4.13-1.96,1.67-3.58,3.58-4.83,5.71h0c-1.21,2.12-1.83,4.32-1.83,6.58,0,1.18.3,2.33,1.14,3.18.85.85,2,1.14,3.18,1.14,1.59,0,3.05-.67,4.34-1.8h0c1.51-1.33,2.36-3.31,2.73-5.69h0c.6-3.53,1.54-5.76,2.62-6.95h0c1.23-1.35,2.45-1.89,3.65-1.89,1.32,0,2.28.5,3.03,1.55h.01s0,.03,0,.03c.73.98,1.25,2.9,1.25,6.11v9.34c0,.1-.01.16-.02.19,0,.03-.01.03-.01.04,0,0-.01.02-.05.04-.04.03-.11.06-.23.1h-.01c-4.22,1.34-8.01,3.1-11.35,5.31-3.34,2.2-6.01,4.72-7.98,7.56-2.01,2.82-3.04,5.89-3.04,9.15,0,.2,0,.4.01.59-.38-.17-.77-.24-1.14-.28h0s-2.16-.31-2.16-.31c-.63-.09-.97-.23-1.13-.33-.08-.2-.2-.67-.2-1.62V26.91c0-.74-.19-1.55-.81-2.18-.62-.62-1.44-.81-2.18-.81h-9.55c-.77,0-1.6.12-2.28.59-.77.53-1.12,1.34-1.12,2.19,0,.81.34,1.54,1,2.05.59.45,1.32.64,2.02.72l1.75.21h.07c.37.03.61.09.75.15.13.05.14.09.13.07l.04.05.04.05c.05.06.27.46.27,1.62v29.06c0,2.18-.47,4.18-1.39,6.03v.02c-.87,1.78-2.02,3.2-3.45,4.28-1.38.98-2.97,1.47-4.8,1.47-1.79,0-3.05-.53-3.95-1.47-.81-.98-1.38-2.8-1.38-5.81V26.91c0-.74-.18-1.55-.81-2.18-.62-.62-1.44-.81-2.18-.81h-8.94c.46-.82.67-1.76.67-2.76,0-1.76-.68-3.28-1.99-4.44-1.27-1.25-2.92-1.83-4.79-1.83-1.98,0-3.86.85-5.63,2.32l-.35.3c-1.88,1.65-3.13,3.91-3.8,6.67-1.63-.58-3.33-.87-5.1-.87-3.14,0-6.02.83-8.59,2.49-2.54,1.64-4.55,3.85-6.03,6.58-1.49,2.76-2.23,5.84-2.23,9.21,0,3.54.89,6.87,2.66,9.96,1.66,2.91,3.89,5.13,6.69,6.64l-6.98,6.01c-.95.79-1.69,1.7-2.09,2.75-.41,1.07-.44,2.18-.12,3.29v.02c.67,2.19,2.63,3.72,5.25,4.82.23.1.32.18.34.2,0-.02,0,.05-.1.23-.11.18-.31.43-.65.74-2.34,2.06-4.13,3.78-5.35,5.14l-.02.02v.02c-1.16,1.36-2,2.64-2.43,3.83h0s0,.03,0,.03c-.4,1.19-.59,2.48-.59,3.85,0,3.53,1.84,6.43,5.13,8.68,3.34,2.35,7.77,3.45,13.15,3.45,4.16,0,7.93-.79,11.3-2.4h0c3.41-1.6,6.17-3.8,8.24-6.61,2.11-2.86,3.16-6.14,3.16-9.79,0-4.6-1.58-8.35-4.82-11.06-3.21-2.75-7.48-4.04-12.65-4.04h-8.83c-1.12,0-1.41-.3-1.52-.51-.12-.41-.07-.94.57-1.74l1.7-1.9h0c.81-.87,1.58-1.48,2.29-1.86l.04-.02.04-.02c.62-.38,1.41-.61,2.42-.61,3.14,0,5.99-.83,8.5-2.5h0c2.55-1.65,4.53-3.9,5.93-6.72h0c1.48-2.83,2.21-6,2.21-9.48,0-2.73-.45-5.26-1.36-7.6l-.19-.46c-.96-2.42-2.32-4.49-4.11-6.21-.37-.37-.65-.72-.84-1.04-.03-.1-.04-.32.07-.7v-.05s.02-.05.02-.05c.16-.69.4-1.05.62-1.23.2-.17.51-.31,1.06-.31s.67.14.62.09c.38.38.79.75,1.23,1.11.79.66,1.86.85,2.88.85.13,0,.25,0,.38-.01-.01.1-.02.21-.02.31,0,.81.34,1.54,1,2.05.59.45,1.32.64,2.02.72l1.75.21h.03s.03,0,.03,0c.37.03.61.09.75.15.08.03.12.06.13.07l.04.05.04.05c.05.06.27.46.27,1.62v35.73c0,2.9.54,5.39,1.76,7.34,1.16,1.85,2.65,3.25,4.5,4.13,1.77.84,3.62,1.27,5.55,1.27,2.6,0,4.99-.56,7.13-1.7h0c1.97-1.02,4.11-2.67,6.41-4.89v3.51c0,.55.1,1.23.52,1.79.48.64,1.19.89,1.85.89.56,0,1.05-.21,1.44-.44.39-.24.77-.55,1.13-.91l.05-.05.05-.05c.86-1.05,1.85-1.94,2.95-2.68,1.07-.67,2.55-1.17,4.54-1.43h.04s.04-.01.04-.01c.64-.12,1.31-.33,1.83-.73.1-.08.19-.16.28-.25.53,1.45,1.34,2.74,2.46,3.86h0s.01.02.01.02c2.15,2.07,4.89,3.07,8.09,3.07,2.76,0,5.18-.64,7.18-2,1.85-1.26,3.61-3.06,5.29-5.35.4,1.78,1.08,3.37,2.06,4.77l.02.03c1.24,1.68,2.97,2.54,5.07,2.54,2.75,0,5.09-1.4,6.99-3.84h0c.34-.44.65-.91.93-1.42.23.5.48.97.77,1.41,1.64,2.54,4.05,3.84,7.07,3.84,3.11,0,6.22-1.59,9.29-4.38,2.15-1.95,4.32-4.78,6.54-8.44-.58,3.37-.4,6.29.73,8.62v.02s.02.02.02.02c.69,1.34,1.64,2.4,2.86,3.13,1.22.72,2.63,1.05,4.17,1.05,3.58,0,6.63-1.62,9.12-4.63h0c1.59-1.92,2.91-4.54,4-7.81.15,3.53.86,6.44,2.25,8.6,1.63,2.52,4,3.84,6.96,3.84,3.13,0,6.21-1.64,9.21-4.51h0c2.25-2.1,4.67-5.29,7.26-9.51-.83,3.88-.76,7.21.5,9.81v.02s.02.02.02.02c.69,1.34,1.64,2.4,2.86,3.13,1.22.72,2.63,1.05,4.17,1.05,3.58,0,6.61-1.62,9.03-4.65h.01c2.25-2.9,3.97-7.37,5.26-13.28l.25-1.2ZM36.84,51.99c-1.28-2.38-1.98-5.74-1.98-10.2s.7-7.6,1.98-9.98c1.34-2.44,2.88-3.36,4.58-3.36,1.7,0,3.2.91,4.47,3.33v.02s.02.02.02.02c1.34,2.38,2.07,5.66,2.07,9.97s-.7,7.82-1.98,10.2c-1.25,2.33-2.78,3.24-4.58,3.24-1.8,0-3.33-.91-4.58-3.24ZM30.34,87.48c0-1.25.24-2.47.72-3.67.44-1.1,1.61-2.75,3.72-4.99h0c.84-.91,1.66-1.48,2.44-1.8.85-.32,2.25-.52,4.31-.52h2.36c3.04,0,5.16.79,6.6,2.16l.02.02.02.02c1.47,1.3,2.29,3.23,2.29,6,0,2.21-.55,4.12-1.62,5.79l-.03.05c-1.03,1.75-2.44,3.1-4.26,4.08-1.83.98-3.86,1.47-6.1,1.47-3.53,0-6.09-.86-7.86-2.41-1.72-1.55-2.6-3.57-2.6-6.21ZM121.97,70.98c-1.27,1.03-2.58,1.5-3.99,1.5-1.38,0-2.22-.44-2.76-1.18-.61-.82-1.03-2.23-1.03-4.45,0-3.37,1.02-6.18,3.03-8.5h0c2.13-2.44,5.15-4.41,9.15-5.85h.01s.01,0,.01,0c.07-.03.14-.05.2-.06v7.34c0,2.49-.45,4.68-1.31,6.59-.89,1.96-2,3.49-3.32,4.63ZM172.29,41.68h0s0,.03,0,.03c-.94,3.28-2.21,6.7-3.83,10.27-1.62,3.57-3.4,6.9-5.35,9.99h0s0,.02,0,.02c-1.87,3.08-3.76,5.55-5.64,7.43-1.89,1.89-3.35,2.55-4.42,2.55-.46,0-.87-.17-1.3-.65-.14-.22-.31-.63-.43-1.3-.13-.7-.21-1.62-.21-2.76,0-3.44.43-6.95,1.29-10.54h0c.87-3.7,2.01-7.21,3.42-10.56,1.48-3.42,3.08-6.46,4.81-9.11,1.78-2.64,3.6-4.67,5.43-6.12h.01s.01-.02.01-.02c1.84-1.52,3.4-2.13,4.72-2.13,1.08,0,1.71.36,2.13.95.49.69.84,1.9.84,3.86,0,2.13-.47,4.82-1.48,8.1ZM218.35,41.68h0s0,.03,0,.03c-.94,3.28-2.21,6.7-3.83,10.27-1.62,3.57-3.4,6.9-5.35,9.99h0s0,.02,0,.02c-1.87,3.08-3.76,5.55-5.64,7.43-1.89,1.89-3.35,2.55-4.42,2.55-.64,0-1.05-.2-1.36-.6-.13-.23-.28-.65-.39-1.33-.12-.72-.19-1.64-.19-2.79,0-3.44.43-6.95,1.29-10.54h0c.87-3.7,2.01-7.21,3.42-10.56,1.29-2.99,2.68-5.69,4.16-8.1l.64-1.02c1.78-2.64,3.6-4.67,5.44-6.12h.01s.01-.02.01-.02c1.84-1.52,3.4-2.13,4.72-2.13,1.08,0,1.71.36,2.13.95.49.69.84,1.9.84,3.86,0,2.13-.47,4.82-1.48,8.1Z"/>
  <path d="M305.41,59.07l-.08-.28-.06-.17c-.16-.39-.43-.77-.84-1.04-.45-.3-.95-.4-1.39-.4-.62,0-1.25.18-1.78.63-.5.43-.79.99-.94,1.55-1.29,4.41-2.55,7.55-3.75,9.51l-.02.03c-1.13,1.94-2.15,2.46-2.96,2.46-.38,0-.55-.09-.63-.14-.08-.06-.2-.18-.3-.5-.22-.73-.22-2.08.28-4.25l9.14-39.32h0s0-.02,0-.02c.13-.62.18-1.49-.34-2.22-.56-.78-1.44-.96-2.1-.96-.72,0-1.37.26-1.94.62l-.24.16c-.75.48-1.49,1.38-2.2,2.41v.02s-.03.02-.04.04c0-.01-.02-.02-.03-.04v-.02s-.36-.48-.36-.48c-.83-1.06-1.87-1.86-3.1-2.37-1.36-.64-2.8-.96-4.31-.96-2.98,0-5.93.92-8.84,2.67-2.82,1.66-5.5,3.92-8.04,6.75v.02c-2.49,2.83-4.7,6.07-6.67,9.71-1.97,3.65-3.51,7.52-4.64,11.59-.5,1.78-.89,3.56-1.17,5.35-.01-.13-.03-.26-.06-.39l-.05-.2-.06-.17c-.16-.39-.43-.77-.84-1.04-.34-.23-.71-.34-1.05-.38l-.34-.02c-.7,0-1.33.27-1.82.76-.45.45-.72,1.03-.9,1.6h0c-1.51,5-2.88,8.16-4.07,9.71l-.02.03c-1.14,1.57-2.2,2.08-3.14,2.08-.63,0-.9-.18-1.07-.45-.2-.48-.28-1.3.02-2.61l8.62-37.56c.12-.48.29-.7.43-.81.14-.11.41-.23.93-.23h5.54c.85,0,1.74-.14,2.46-.66.8-.58,1.14-1.44,1.14-2.33,0-.79-.28-1.59-1-2.15-.65-.5-1.46-.63-2.19-.63h-5.62l2.52-11.17h0c.14-.63.18-1.52-.43-2.25-.6-.71-1.47-.85-2.11-.85h-4.21c-.62,0-1.27.16-1.82.59-.54.43-.85,1.01-1.02,1.6v.03s-.02.03-.02.03l-2.46,10.99v.02s-.01.02-.01.02c-.09.46-.25.65-.37.75-.13.1-.41.23-.98.23h-3.7c-.68,0-1.33.17-1.9.55l-.24.18c-.72.58-1.06,1.39-1.06,2.26,0,.7.19,1.48.82,2.06.61.57,1.39.72,2.06.72h3.67l-8.47,36.94v.02c-.91,4.19-.83,7.7.84,10.07,1.58,2.25,3.84,3.39,6.62,3.39,1.58,0,3.14-.41,4.67-1.17l.68-.36h.02c1.85-1.14,3.54-3.07,5.1-5.63h0c1.68-2.64,3.16-6.34,4.47-11.04h0c.05-.15.09-.3.13-.45-.17,1.56-.25,3.12-.25,4.68,0,4.23.7,7.67,2.28,10.13,1.63,2.52,3.99,3.84,6.96,3.84,3.12,0,6.2-1.64,9.2-4.5h0c2.26-2.1,4.68-5.29,7.27-9.52-.83,3.88-.76,7.21.5,9.81v.02s.02.02.02.02c.69,1.34,1.64,2.4,2.86,3.13,1.22.72,2.63,1.05,4.17,1.05,3.58,0,6.61-1.62,9.04-4.65h.01c2.4-3.09,4.2-7.98,5.51-14.48.15-.62.19-1.27.04-1.9ZM288.61,41.68h0s0,.03,0,.03c-.94,3.28-2.21,6.7-3.83,10.27-1.62,3.57-3.4,6.9-5.35,9.99h0s0,.02,0,.02c-1.87,3.08-3.76,5.55-5.64,7.43-1.89,1.89-3.36,2.55-4.42,2.55-.64,0-1.05-.21-1.36-.6-.13-.23-.28-.65-.39-1.32-.12-.72-.18-1.64-.18-2.79,0-3.44.43-6.95,1.29-10.54h0c.87-3.7,2.01-7.21,3.42-10.56h0c1.47-3.41,3.07-6.44,4.8-9.09,1.79-2.65,3.61-4.69,5.45-6.14h.01s.01-.02.01-.02c1.84-1.52,3.4-2.13,4.72-2.13,1.08,0,1.71.36,2.13.95.49.69.84,1.9.84,3.86,0,2.13-.47,4.82-1.48,8.1Z"/>
</svg>